# xmcd
#
# Track frame offsets: 
#        150
#        23065
#        43387
#        65750
#        82705
#        102282
#        120207
#        140000
#        161170
#        177202
#        197450
#        220777
#        239312
#
# Disc length: 3515 seconds
#
# Revision: 53
# Processed by: cddbd v1.5.2PL0 Copyright (c) Steve Scherf et al.
# Submitted via: ExactAudioCopy v1.0b3
#
DISCID=ac0db90d
DTITLE=SPITZ - RECYCLE Greatest Hits of SPITZ
DYEAR=1999
DGENRE=Rock
TTITLE0=??????????
TTITLE1=???????
TTITLE2=???
TTITLE3=?????
TTITLE4=?????
TTITLE5=??????
TTITLE6=????
TTITLE7=?
TTITLE8=??????
TTITLE9=?????
TTITLE10=????
TTITLE11=????
TTITLE12=?
EXTD=YEAR: 1999
EXTT0=
EXTT1=
EXTT2=
EXTT3=
EXTT4=
EXTT5=
EXTT6=
EXTT7=
EXTT8=
EXTT9=
EXTT10=
EXTT11=
EXTT12=
PLAYORDER=
